<svg width="144" height="27" viewBox="0 0 144 27" fill="none" xmlns="http://www.w3.org/2000/svg">
<path d="M89.562 7.39774C88.0582 7.39774 86.6152 8.02052 85.5671 9.11419V3.32685C85.5671 3.14457 85.4152 2.99268 85.2329 2.99268H83.1975C83.0152 2.99268 82.8633 3.14457 82.8633 3.32685V18.9724C82.8633 19.1547 83.0152 19.3066 83.1975 19.3066H85.2329C85.4152 19.3066 85.5671 19.1547 85.5671 18.9724V17.8939C86.6152 18.9876 88.043 19.6104 89.562 19.6104C92.7367 19.6104 95.3038 16.8762 95.3038 13.5041C95.3038 10.1319 92.7367 7.39774 89.562 7.39774ZM89.0911 17.1648C87.162 17.1648 85.5975 15.5547 85.5823 13.5496V13.4585C85.6126 11.4534 87.162 9.84331 89.0911 9.84331C91.0354 9.84331 92.6 11.4838 92.6 13.5041C92.6 15.5243 91.0202 17.1648 89.0911 17.1648Z" fill="#151540"/>
<path d="M102.787 7.39795C99.354 7.39795 96.5742 10.1321 96.5742 13.5043C96.5742 16.8764 99.354 19.6106 102.787 19.6106C106.22 19.6106 109 16.8764 109 13.5043C109 10.1321 106.22 7.39795 102.787 7.39795ZM102.772 17.165C100.827 17.165 99.2628 15.5245 99.2628 13.5043C99.2628 11.484 100.843 9.84352 102.772 9.84352C104.701 9.84352 106.281 11.484 106.281 13.5043C106.281 15.5245 104.701 17.165 102.772 17.165Z" fill="#151540"/>
<path d="M64.7977 7.70175H62.7623C62.58 7.70175 62.4281 7.85365 62.4281 8.03592V9.1144C61.38 8.02073 59.9521 7.39795 58.4332 7.39795C55.2585 7.39795 52.6914 10.1321 52.6914 13.5043C52.6914 16.8764 55.2585 19.6106 58.4332 19.6106C59.937 19.6106 61.38 18.9878 62.4281 17.8942V18.9726C62.4281 19.1549 62.58 19.3068 62.7623 19.3068H64.7977C64.98 19.3068 65.1319 19.1549 65.1319 18.9726V8.03592C65.1319 7.85365 64.98 7.70175 64.7977 7.70175ZM58.904 17.165C56.9597 17.165 55.3952 15.5245 55.3952 13.5043C55.3952 11.484 56.9749 9.84352 58.904 9.84352C60.8332 9.84352 62.3977 11.4536 62.4129 13.4587V13.5498C62.3977 15.5549 60.8332 17.165 58.904 17.165Z" fill="#151540"/>
<path d="M74.9604 7.39795C73.4566 7.39795 72.0136 8.02073 70.9655 9.1144V8.03592C70.9655 7.85365 70.8136 7.70175 70.6313 7.70175H68.5959C68.4136 7.70175 68.2617 7.85365 68.2617 8.03592V23.6815C68.2617 23.8638 68.4136 24.0157 68.5959 24.0157H70.6313C70.8136 24.0157 70.9655 23.8638 70.9655 23.6815V17.8942C72.0136 18.9878 73.4415 19.6106 74.9604 19.6106C78.1351 19.6106 80.7022 16.8764 80.7022 13.5043C80.7022 10.1321 78.1351 7.39795 74.9604 7.39795ZM74.4896 17.165C72.5604 17.165 70.9959 15.5549 70.9807 13.5498V13.4587C71.0111 11.4536 72.5604 9.84352 74.4896 9.84352C76.4338 9.84352 77.9984 11.484 77.9984 13.5043C77.9984 15.5245 76.4338 17.165 74.4896 17.165Z" fill="#151540"/>
<path d="M46.6014 7.39814C45.0825 7.41333 43.7002 8.29435 43.047 9.67662C42.3027 8.26397 40.8141 7.38295 39.2192 7.39814C37.9736 7.39814 36.804 8.00574 36.0749 9.00827V8.03612C36.0749 7.85384 35.923 7.70194 35.7407 7.70194H33.7053C33.523 7.70194 33.3711 7.85384 33.3711 8.03612V18.9728C33.3711 19.1551 33.523 19.307 33.7053 19.307H35.7407C35.923 19.307 36.0749 19.1551 36.0749 18.9728V12.426C36.1508 10.9678 37.1686 9.79814 38.4141 9.79814C39.7053 9.79814 40.7837 10.8766 40.7837 12.2893V18.9728C40.7837 19.1551 40.9356 19.307 41.1179 19.307H43.1685C43.3508 19.307 43.5027 19.1551 43.5027 18.9728L43.4875 12.1678C43.6698 10.8311 44.6268 9.79814 45.7964 9.79814C47.0875 9.79814 48.166 10.8766 48.166 12.2893V18.9728C48.166 19.1551 48.3179 19.307 48.5002 19.307H50.5508C50.7331 19.307 50.885 19.1551 50.885 18.9728L50.8698 11.4538C50.8698 9.20574 48.9559 7.39814 46.6014 7.39814Z" fill="#151540"/>
<path d="M119.952 18.8359L116.428 13.4739L119.922 8.15741C120.013 8.0207 119.968 7.82323 119.831 7.73209C119.785 7.70171 119.725 7.68652 119.664 7.68652H117.309C117.127 7.68652 116.96 7.77766 116.869 7.92956L114.818 11.3777L112.768 7.94475C112.677 7.79285 112.509 7.70171 112.327 7.70171H109.973C109.806 7.70171 109.669 7.83842 109.669 8.00551C109.669 8.06627 109.684 8.12703 109.715 8.1726L113.208 13.4891L109.684 18.8511C109.593 18.9878 109.639 19.1853 109.775 19.2764C109.821 19.3068 109.882 19.322 109.942 19.322H112.297C112.479 19.322 112.646 19.2308 112.737 19.0789L114.833 15.5853L116.93 19.0789C117.021 19.2308 117.188 19.322 117.37 19.322H119.694C119.861 19.322 119.998 19.1853 119.998 19.0182C119.998 18.9574 119.983 18.8966 119.952 18.8359Z" fill="#151540"/>
<path d="M13.5038 0C6.04555 0 0 6.04557 0 13.5038C0 20.962 6.04555 27.0076 13.5038 27.0076C20.962 27.0076 27.0075 20.962 27.0075 13.5038C27.0075 6.04557 20.962 0 13.5038 0ZM19.9139 16.8152C15.2962 21.4329 7.04808 19.9595 7.04808 19.9595C7.04808 19.9595 5.55948 11.7266 10.1924 7.09367C12.7595 4.52658 17.0126 4.63291 19.7012 7.30633C22.3898 9.97975 22.481 14.2481 19.9139 16.8152Z" fill="#151540"/>
<path d="M15.0522 7.91406L13.7307 10.633L11.0117 11.9546L13.7307 13.2761L15.0522 15.9951L16.3737 13.2761L19.0927 11.9546L16.3737 10.633L15.0522 7.91406Z" fill="#151540"/>
</svg>
